<?xml version="1.0" encoding="UTF-8" standalone="no"?>
<svg
   xmlns:dc="http://purl.org/dc/elements/1.1/"
   xmlns:cc="http://creativecommons.org/ns#"
   xmlns:rdf="http://www.w3.org/1999/02/22-rdf-syntax-ns#"
   xmlns:svg="http://www.w3.org/2000/svg"
   xmlns="http://www.w3.org/2000/svg"
   xmlns:sodipodi="http://sodipodi.sourceforge.net/DTD/sodipodi-0.dtd"
   xmlns:inkscape="http://www.inkscape.org/namespaces/inkscape"
   viewBox="0 0 452 452"
   version="1.1"
   id="svg4649"
   sodipodi:docname="remove.svg"
   width="452"
   height="452"
   inkscape:version="0.92.3 (2405546, 2018-03-11)">
  <metadata
     id="metadata4655">
    <rdf:RDF>
      <cc:Work
         rdf:about="">
        <dc:format>image/svg+xml</dc:format>
        <dc:type
           rdf:resource="http://purl.org/dc/dcmitype/StillImage" />
      </cc:Work>
    </rdf:RDF>
  </metadata>
  <defs
     id="defs4653" />
  <sodipodi:namedview
     pagecolor="#ffffff"
     bordercolor="#666666"
     borderopacity="1"
     objecttolerance="10"
     gridtolerance="10"
     guidetolerance="10"
     inkscape:pageopacity="0"
     inkscape:pageshadow="2"
     inkscape:window-width="1920"
     inkscape:window-height="1021"
     id="namedview4651"
     showgrid="false"
     inkscape:zoom="1.3037281"
     inkscape:cx="227.69191"
     inkscape:cy="174.72843"
     inkscape:window-x="0"
     inkscape:window-y="35"
     inkscape:window-maximized="1"
     inkscape:current-layer="svg4649" />
  <path
     d="M 292.72002,226 392.78999,125.93 c 12.28001,-12.28 12.28001,-32.189998 0,-44.479998 l -22.23997,-22.24 C 358.27001,46.93 338.36001,46.93 326.07001,59.210002 L 226,159.27999 125.93002,59.210002 C 113.65001,46.93 93.740003,46.93 81.450003,59.210002 l -22.240002,22.24 c -12.28,12.28 -12.28,32.189998 0,44.479998 L 159.28,226 59.210001,326.07001 c -12.28,12.27999 -12.28,32.18999 0,44.47999 l 22.240002,22.23999 c 12.279999,12.28001 32.200007,12.28001 44.480017,0 L 226,292.72 326.07001,392.78999 c 12.28,12.28001 32.2,12.28001 44.48001,0 L 392.78999,370.55 c 12.28001,-12.28 12.28001,-32.19 0,-44.47999 z"
     id="path4647"
     inkscape:connector-curvature="0"
     style="stroke-width:1" />
</svg>
